<svg width="193" height="30" viewBox="0 0 193 30" fill="none" xmlns="http://www.w3.org/2000/svg">
<g clip-path="url(#clip0_208_3)">
<mask id="mask0_208_3" style="mask-type:luminance" maskUnits="userSpaceOnUse" x="0" y="0" width="193" height="30">
<path d="M193 0H0V30H193V0Z" fill="white"/>
</mask>
<g mask="url(#mask0_208_3)">
<path d="M49.14 14.79L49.08 14.71L49.14 14.63V0H45.46V29.52H49.14V14.79Z" fill="white"/>
<path d="M59.22 29.55H63.7L53.43 14.71L63.65 0.0200043H59.16L49 14.63L48.95 14.71L49 14.79L59.22 29.55Z" fill="white"/>
<path d="M41.05 0.0599976H31.22V3.74H37.37V21.29C37.37 23.78 35.34 25.8 32.86 25.8H22.71V29.49H32.93C32.93 29.49 32.95 29.49 32.96 29.49L35.53 29.5L41.1 23.93V20.04L41.07 20.07V0.0599976H41.05Z" fill="white"/>
<path d="M9.46 29.49H9.45H18.36V25.81H8.22C5.72 25.81 3.69 23.77 3.69 21.27V0H0V23.92L5.57 29.49H9.46Z" fill="white"/>
<path d="M169.5 0.0299988H165.82V29.49H169.5V0.0299988Z" fill="white"/>
<path d="M97.74 3.68999H105.15V29.55H108.83V3.68999H116.11V0.00999451H97.74V3.68999Z" fill="white"/>
<path d="M138.8 19.6V0H135.12V20.8C135.12 23.8 132.68 26.25 129.68 26.25C126.68 26.25 124.23 23.81 124.23 20.8V0H120.54V21.4V23.97L126.11 29.54H133.24L138.81 23.97V21.4V19.6H138.8Z" fill="white"/>
<path d="M161.38 5.6L155.81 0.0299988H151.92H143.27V29.47H152.01L151.98 29.5H155.87L161.44 23.93L161.39 5.6H161.38ZM146.95 25.79V3.71H153.21C155.7 3.71 157.73 5.74 157.73 8.24V21.26C157.73 23.75 155.7 25.78 153.21 25.78H146.95V25.79Z" fill="white"/>
<path d="M86.22 12.89C86.22 12.89 86.18 12.89 86.17 12.89H86.05L83.32 12.88C80.8 12.88 78.75 10.83 78.75 8.31C78.75 5.79 80.78 3.76 83.28 3.74H93.34V0.0599976H83.32C78.77 0.0599976 75.07 3.76 75.07 8.3C75.07 8.34 75.07 8.37 75.07 8.41L75.05 8.39V10.96L80.62 16.53H82.91L82.93 16.55C83.06 16.55 83.19 16.55 83.32 16.55H86.28C88.78 16.61 90.79 18.66 90.79 21.17C90.79 23.68 88.85 25.65 86.42 25.77H75.66V29.45H86.18C90.75 29.46 94.47 25.74 94.47 21.17C94.47 21.11 94.47 21.05 94.47 20.99L94.5 21.02V18.45L88.93 12.88H86.24L86.22 12.89Z" fill="white"/>
<path d="M192.24 5.6L186.67 0.0200043H179.55L173.98 5.59V23.96L179.55 29.53H186.67L192.24 23.96V5.6ZM188.56 8.67V8.91V20.78C188.56 20.78 188.56 20.82 188.56 20.84V19.61V20.89C188.5 23.84 186.08 26.22 183.12 26.22C180.16 26.22 177.67 23.78 177.67 20.77V10.84V8.67C177.67 5.67 180.11 3.22 183.12 3.22C186.13 3.22 188.54 5.64 188.57 8.62C188.57 8.64 188.57 8.65 188.57 8.66L188.56 8.67Z" fill="white"/>
</g>
</g>
<defs>
<clipPath id="clip0_208_3">
<rect width="193" height="30" fill="white"/>
</clipPath>
</defs>
</svg>
